<svg xmlns="http://www.w3.org/2000/svg" width="60" height="60" viewBox="0 0 60 60">
  <g id="Group_4" data-name="Group 4" transform="translate(-390.946 -267.64)">
    <g id="Group_3" data-name="Group 3">
      <path id="Path_16" data-name="Path 16" d="M450.218,301.016l-10.652-3a5.22,5.22,0,0,0-3.267.153l.6-1.379,2.111-2.2a25.085,25.085,0,0,0,5.834-9.922,9.236,9.236,0,0,0-6.172-11.547,9.343,9.343,0,0,0-3.713-.351,12.918,12.918,0,0,1-9.638-2.937,9.339,9.339,0,0,0-13.107,1.093,9.208,9.208,0,0,0-1.787,3.255,25,25,0,0,0-.758,11.469l.507,3-2.163,11.393a5.217,5.217,0,0,0-5.689-2.025l-10.653,3a.994.994,0,0,0-.726.956v24.674a1,1,0,0,0,1,.994h58a1,1,0,0,0,1-.994V301.972A1,1,0,0,0,450.218,301.016Zm-40.93,3.027,2.887-15.2a.973.973,0,0,0,0-.349l-.536-3.181a23.011,23.011,0,0,1,.7-10.557,7.322,7.322,0,0,1,11.691-3.412,14.928,14.928,0,0,0,11.146,3.4,7.29,7.29,0,0,1,8.038,6.442,7.2,7.2,0,0,1-.278,2.9,23.125,23.125,0,0,1-5.371,9.132l-2.235,2.334a.967.967,0,0,0-.2.29l-6.175,14.2a1.852,1.852,0,0,1-2.428.955,1.831,1.831,0,0,1-1.093-1.954l2.184-14.526a4.48,4.48,0,0,0-3.121-4.92,4.369,4.369,0,0,0-1.3-.193,4.519,4.519,0,0,0-4.061,2.53l-6.377,13.248a1.851,1.851,0,0,1-2.463.864A1.832,1.832,0,0,1,409.288,304.043Zm15.318-2.92a10.556,10.556,0,0,1-7.516-.321l3.855-8.016a2.491,2.491,0,0,1,3.309-1.173,2.464,2.464,0,0,1,1.391,2.6v-.005Zm-15.661,6.412a3.817,3.817,0,0,0,5.294-.926,3.922,3.922,0,0,0,.334-.574l1.656-3.449a12.254,12.254,0,0,0,8.052.7l-.822,5.455a3.848,3.848,0,0,0,7.336,2.083l2.151-4.941v12.7a3.182,3.182,0,0,1-6.122,1.157l-2.208-5.448a3.971,3.971,0,0,0-7.341,0l-2.208,5.449a3.182,3.182,0,0,1-6.122-1.158V307.535Zm40,18.117h-56V302.723l9.925-2.8a3.212,3.212,0,0,1,3.738,1.62,3.118,3.118,0,0,1,.337,1.4v15.629a5.183,5.183,0,0,0,9.976,1.9l2.208-5.447a1.966,1.966,0,0,1,3.63,0l2.208,5.447a5.184,5.184,0,0,0,9.978-1.9V302.95a3.1,3.1,0,0,1,.336-1.4,3.214,3.214,0,0,1,3.739-1.62l9.924,2.8Z" fill="#fff"/>
    </g>
  </g>
</svg>
