<svg xmlns="http://www.w3.org/2000/svg" width="60" height="60" viewBox="0 0 60 60">
  <g id="Group_29" data-name="Group 29" transform="translate(-390.945 -267.64)">
    <g id="Group_18" data-name="Group 18">
      <g id="Group_17" data-name="Group 17">
        <path id="Path_22" data-name="Path 22" d="M410.39,286.608a7.769,7.769,0,0,0-3.445,6.469v1.4h2v-1.4a5.76,5.76,0,0,1,2.555-4.8Z" fill="#fff"/>
      </g>
    </g>
    <g id="Group_20" data-name="Group 20">
      <g id="Group_19" data-name="Group 19">
        <path id="Path_23" data-name="Path 23" d="M449.238,271.66l-17.293,17.378-2.586-2.6,17.293-17.378-1.414-1.421L427.4,285.561l-11.776,3.944a1.007,1.007,0,0,0-.633,1.271,1,1,0,0,0,.242.393l12,12.059a1,1,0,0,0,1.414,0,1.007,1.007,0,0,0,.241-.392L432.819,291l17.833-17.922Zm-21.731,29-2.275-2.288,3.545-5.343-1.664-1.116-3.324,5.011-2.274-2.29L426.5,291.3l-1.11-1.672-5.317,3.562L417.8,290.9l9.877-3.309,3.126,3.141Z" fill="#fff"/>
      </g>
    </g>
    <g id="Group_22" data-name="Group 22">
      <g id="Group_21" data-name="Group 21">
        <path id="Path_24" data-name="Path 24" d="M450.219,303.562l-9.7-2.785a6.3,6.3,0,0,0-3.668.07,25.537,25.537,0,0,0,2.094-10.087,9.512,9.512,0,0,0-.112-1.459l-1.977.312a7.336,7.336,0,0,1,.089,1.147,23.48,23.48,0,0,1-2.445,10.408l-1.45,2.914a1.012,1.012,0,0,0-.1.339l-1.718,15.539a1.845,1.845,0,0,1-3.661.071L425.38,305.35a4.482,4.482,0,0,0-8.87,0l-2.191,14.681a1.845,1.845,0,0,1-3.661-.071l-1.719-15.543a1.023,1.023,0,0,0-.1-.338l-1.45-2.915a23.487,23.487,0,0,1-2.444-10.4,7.3,7.3,0,0,1,10.172-6.743,14.786,14.786,0,0,0,11.656,0l-.787-1.847a12.8,12.8,0,0,1-10.082,0,9.284,9.284,0,0,0-12.209,4.915,9.4,9.4,0,0,0-.75,3.675,25.521,25.521,0,0,0,2.1,10.087,6.3,6.3,0,0,0-3.669-.07l-9.7,2.785a1,1,0,0,0-.731.965v22.108a1,1,0,0,0,1,1.005h58a1,1,0,0,0,1-1.005V304.527A1,1,0,0,0,450.219,303.562Zm-1.274,22.068h-56V305.285l8.975-2.577a4.375,4.375,0,0,1,5.054,2.145l1.7,15.329a3.845,3.845,0,0,0,7.628.148l2.191-14.682a2.481,2.481,0,0,1,4.912,0L425.6,320.33a3.845,3.845,0,0,0,7.628-.148l1.7-15.329a4.376,4.376,0,0,1,5.054-2.145l8.967,2.577Z" fill="#fff"/>
      </g>
    </g>
    <g id="Group_24" data-name="Group 24">
      <g id="Group_23" data-name="Group 23">
        <path id="Path_25" data-name="Path 25" d="M442.252,297.091a29.484,29.484,0,0,0,.693-6.331,13.254,13.254,0,0,0-1.3-5.757l-1.8.868a11.264,11.264,0,0,1,1.1,4.889,27.5,27.5,0,0,1-.858,6.793,1.006,1.006,0,0,0,.723,1.221l9.42,2.7.549-1.932Z" fill="#fff"/>
      </g>
    </g>
    <g id="Group_26" data-name="Group 26">
      <g id="Group_25" data-name="Group 25">
        <path id="Path_26" data-name="Path 26" d="M424.408,278.474a8.79,8.79,0,0,1-6.93,0,13.276,13.276,0,0,0-17.46,7.029,13.41,13.41,0,0,0-1.073,5.257,29.487,29.487,0,0,0,.693,6.337l-8.527,2.445.549,1.932,9.161-2.63.259-.07a1.007,1.007,0,0,0,.724-1.221v0a27.47,27.47,0,0,1-.858-6.79,11.337,11.337,0,0,1,11.3-11.355,11.178,11.178,0,0,1,4.451.919,10.8,10.8,0,0,0,8.5,0,11.277,11.277,0,0,1,5.643-.856l.208-2A13.333,13.333,0,0,0,424.408,278.474Z" fill="#fff"/>
      </g>
    </g>
    <g id="Group_28" data-name="Group 28">
      <g id="Group_27" data-name="Group 27">
        <path id="Path_27" data-name="Path 27" d="M403.928,276.222a1,1,0,0,0-.819-.823,3.878,3.878,0,0,1-3.178-3.194,1,1,0,0,0-1.972,0,3.878,3.878,0,0,1-3.178,3.194,1.006,1.006,0,0,0,0,1.982,3.878,3.878,0,0,1,3.178,3.195,1,1,0,0,0,1.972,0,3.878,3.878,0,0,1,3.178-3.195A1,1,0,0,0,403.928,276.222Zm-4.983,1.6a5.881,5.881,0,0,0-1.428-1.435,5.882,5.882,0,0,0,1.428-1.435,5.881,5.881,0,0,0,1.428,1.435A5.88,5.88,0,0,0,398.945,277.825Z" fill="#fff"/>
      </g>
    </g>
  </g>
</svg>
