<svg xmlns="http://www.w3.org/2000/svg" width="60" height="60" viewBox="0 0 60 60">
  <g id="Group_16" data-name="Group 16" transform="translate(-390.945 -267.64)">
    <g id="Group_9" data-name="Group 9">
      <g id="Group_8" data-name="Group 8">
        <path id="Path_18" data-name="Path 18" d="M413.573,295.24l-3.117,1.248a2.075,2.075,0,0,1-2.626-2.848l.687-1.374a2,2,0,0,0-.375-2.31l-4.783-4.782,1.293-1.293a1,1,0,0,0,0-1.414l-3.293-3.293.293-.293a1,1,0,0,0,.02-1.394l-9-9.533a1,1,0,0,0-1.727.686v13a1,1,0,0,0,.355.764l3,2.536a1,1,0,0,0,1.352-.057l.293-.3,3.293,3.293a1,1,0,0,0,1.414,0l1.293-1.293,4.783,4.783-.683,1.37a4.071,4.071,0,0,0,5.157,5.6l3.119-1.246Zm-18.335-12.771-.35.35-1.943-1.643v-10.02l6.606,7-.313.313Zm4.707,3.29-2.586-2.586,2.586-2.586,2.586,2.589Z" fill="#fff"/>
      </g>
    </g>
    <g id="Group_11" data-name="Group 11">
      <g id="Group_10" data-name="Group 10">
        <path id="Path_19" data-name="Path 19" d="M450.328,296.716a1,1,0,0,0-1.09.217l-14,14a1,1,0,0,0,0,1.414l.793.793-3.924,3.924a9.66,9.66,0,0,0-5.162-1.424c-4.411,0-8,2.69-8,6s3.589,6,8,6,8-2.691,8-6a4.966,4.966,0,0,0-1.308-3.277l3.808-3.808.793.793a1,1,0,0,0,1.414,0l11-11a1,1,0,0,0,.293-.708v-6A1,1,0,0,0,450.328,296.716Zm-23.383,28.923c-3.252,0-6-1.831-6-4s2.748-4,6-4,6,1.832,6,4S430.2,325.639,426.945,325.639Zm22-22.413-10,10-1.586-1.586,11.586-11.586Z" fill="#fff"/>
      </g>
    </g>
    <g id="Group_13" data-name="Group 13">
      <g id="Group_12" data-name="Group 12">
        <path id="Path_20" data-name="Path 20" d="M425.424,301.434a4.541,4.541,0,0,0-8.958,0l-3.021,18.126a2.489,2.489,0,0,1-4.921-.072L405.936,300.5a1,1,0,0,0-.143-.4l-.556-.891a28.153,28.153,0,0,1-3.61-8.8l-1.953.436a30.165,30.165,0,0,0,3.871,9.43l.442.708,2.56,18.769a4.488,4.488,0,0,0,8.874.133l3.021-18.126a2.539,2.539,0,0,1,5.01,0l2.007,12.041,1.972-.33Z" fill="#fff"/>
      </g>
    </g>
    <g id="Group_15" data-name="Group 15">
      <g id="Group_14" data-name="Group 14">
        <path id="Path_21" data-name="Path 21" d="M430.329,271.64a12.614,12.614,0,0,0-4.969,1.02,11.262,11.262,0,0,1-8.83,0,12.614,12.614,0,0,0-14.327,3.134l1.484,1.346a10.614,10.614,0,0,1,12.055-2.643,13.259,13.259,0,0,0,10.406,0,10.617,10.617,0,0,1,14.8,9.759,28.2,28.2,0,0,1-4.292,14.963l-.556.891a.972.972,0,0,0-.142.4l-.819,6,1.981.271.79-5.787.442-.708a30.2,30.2,0,0,0,4.6-16.029A12.616,12.616,0,0,0,430.329,271.64Z" fill="#fff"/>
      </g>
    </g>
  </g>
</svg>
