<svg xmlns="http://www.w3.org/2000/svg" width="616.378" height="679.457" viewBox="0 0 616.378 679.457">
  <path id="placehold" d="M-443.944,679.457c4.233-10.445,8.308-20.5,12.893-31.812-11.175,2.738-20.882,4.818-30.415,7.51-23.8,6.718-48.239,9.95-72.629,13.213a90.161,90.161,0,0,1-39.578-3.276c-6.456-2.076-12.158-6.572-18.083-10.166a7.978,7.978,0,0,1-2.655-3.525,143.424,143.424,0,0,1-12.529-50.449,21.673,21.673,0,0,0-.131-2.994c-5.211-25.337,4.967-47.969,13.511-70.46,20.593-54.218,39.287-109.212,64.071-161.771,7.25-15.375,18.361-28.025,29.052-41.016,12.08-14.679,27.448-24.885,43.451-34.622,12.237-7.445,19.436-19.042,23.692-32.74,2.175-7,5.712-13.572,8.6-20.356.162-.378-.031-.909-.094-1.974-1.487,1.142-2.612,2-3.573,2.744,7.737-13.75,14.53-28.223,23.629-41.062,5.163-7.284,6.233-13.422,3.948-21.262a31.561,31.561,0,0,1-1.034-8.392c-.063-5.775-1.867-9.907-7.512-12.779-7.481-3.808-9.472-11.7-11.418-19.114-2.616-9.966-2-19.51,3.152-28.946,2.627-4.81,3.144-10.771,4.626-16.209,3.23-11.849,5.808-23.928,9.866-35.486,5.027-14.323,15.327-25.092,26.448-35.122,8.977-8.1,19.125-14.035,30.84-16.668,13.889-3.123,27.94-4.282,41.831.473,1.1.377,2.3,1,3.364.859,19.126-2.476,30.936,9.609,42.054,21.923,14.3,15.843,19.944,35.4,20.958,56.367.28,5.791-.311,11.624-.5,17.438-.387,12-2.131,24.153-.836,35.972,1.921,17.533-.7,33.186-9.166,48.893-10.061,18.666-23.128,34.426-38.525,48.631-4.792,4.421-9.785,8.024-16.748,7.778l-.775,1.173c1.993,1.866,3.673,4.6,6.032,5.45,10.806,3.907,16.369,12.682,21.333,22.027,1.32,2.485,2.7,3.336,5.535,3.774,4.717.728,9.318,2.419,13.86,4.01,6.834,2.395,13.6,2.829,20.516.42a6.222,6.222,0,0,1,3.326-.062c3.88.93,7.731,1.992,11.575,3.067,11.874,3.326,19.825,10.536,23.928,22.463,2.129,6.185,5.553,12.028,9.052,17.612,4.02,6.416,7.756,12.754,8.463,20.52.149,1.64,1.352,3.292,2.367,4.728,7.583,10.721,14.361,22.177,23.08,31.889,13.649,15.2,20.832,34.215,32.223,50.668a74.331,74.331,0,0,0,5.142,5.938c4.4-8.65,9.236-16.318,12.175-24.656,1.716-4.864.052-10.83.513-16.248,1-11.766,6.084-22.292,10.329-33.106,1.229-3.128.4-7.14.218-10.731-.424-8.414-.9-16.831-1.642-25.221-.191-2.168-1.441-4.242-2.273-6.552,3.8-5.557,4.547-11.084,1.7-18.319-6.724-17.061-9.146-35.2-2.807-52.729,4.615-12.766,15.2-20.511,29.2-21.858,6.259-.6,12.641.154,18.967.1,3.1-.024,6.195-.481,9.757-.781-.006-.106.052.866.086,1.426l19.81,8.574c.142-.481.393-1.5.738-2.483,1.617-4.623,6.064-5.605,9.364-2.136,2.969,3.119,6.312,5.933,8.935,9.311A40.486,40.486,0,0,1,2.56,248.78c1.314,3.206,1.863,6.719,2.884,10.055,1.461,4.768,3.619,9.527-1.267,13.75,4.857,4.635,4.377,9.468,1.8,14.443q-3.555,6.855-7.237,13.644c-4.364,8.078-6.309,16.762-7.164,25.853-.24,2.556-1.919,5.191-3.513,7.37-5.171,7.069-10.775,13.825-15.9,20.925-5.232,7.251-10.1,14.767-15.478,22.688,4.324,2.514,9.107,6.281,14.543,8.252,11.331,4.109,13.961,13.29,14.884,23.474.3,3.285-1,6.841-2.088,10.1-3.168,9.447-6.367,18.9-10.053,28.147-1.317,3.3-4.439,5.849-6.062,9.078-2.2,4.374-4.942,8.967-5.353,13.65-1.437,16.327-7.759,31.252-12.279,46.684-3.119,10.654-6.488,21.261-10.338,31.669-5.588,15.11-17.41,25.783-27.77,37.458a2.1,2.1,0,0,1-.793.6c-12.205,4.437-24.593,9.134-37.6,4.17-13.67-5.215-27.528-10.377-40.276-17.422-8.312-4.594-14.806-12.49-22.074-18.952a37.215,37.215,0,0,1-3.032-3.6,50.522,50.522,0,0,0-2.261,4.743c-1.6,4.615-3.894,9.188-4.372,13.934a22.68,22.68,0,0,0,2.412,11.91,208.016,208.016,0,0,1,19.7,60.454A8.219,8.219,0,0,0-174,646.037c9.288,9.306,12.866,21.787,19.679,33.42Z" transform="translate(608.491 0)" fill="#bfbfbf" fill-rule="evenodd"/>
</svg>
