<svg xmlns="http://www.w3.org/2000/svg" width="472.999" height="723.787" viewBox="0 0 472.999 723.787">
  <path id="placehold" d="M175,501.209v-1c1.67-.7,4.3-.98,4.844-2.192,2.137-4.728,6.551-4.111,10.241-4.943,4.786-1.078,9.686-1.646,15.467-2.586-3.449-6.279-6.326-11.845-9.508-17.233-4.622-7.83-4.466-12.04,1.086-18.989a11.435,11.435,0,0,0,1.559-2.521c8.164-18.775,16.894-37.332,24.262-56.415,6.278-16.263,10.859-33.176,16.457-49.711,1.75-5.167,5.082-9.854,6.449-15.086,4.108-15.726,6.99-31.792,11.535-47.379,3.614-12.4,6.409-26.063,21.333-31,.587-.195,1.017-.843,1.544-1.247,7.4-5.669,14.783-11.366,22.222-16.987,10.584-8,21.573-15.509,31.714-24.03,9.483-7.97,18.511-16.293,30.963-19.426,1.181-.3,2.133-1.459,3.223-2.172,7.262-4.749,8.685-13.111,12.391-20.051,3.422-6.406-.038-19.967-6.068-23.941-6.268-4.133-11.216-9.444-13.379-16.689a119.8,119.8,0,0,1-3.38-16.353c-3.376-22.3-6.6-44.629-9.857-66.949-.24-1.645-.271-3.318-.433-4.975a171.645,171.645,0,0,1,2.816-50.086c2.311-11.714,6.941-22.856,16.771-31.02,8.793-7.3,17.9-13.883,29.275-16.347,13.362-2.9,26.892-5.807,40.5-2.42,8.491,2.111,16.6,5.735,24.927,8.528,8.647,2.9,16.455,6.99,22.432,14.146,1.469,1.759,3.6,2.947,5.285,4.547,4.162,3.95,8.139,8.1,12.388,11.954,3.885,3.526,2.894,8.587,4.513,12.8,4.022,10.468,4.16,21.094,1.635,31.873-.892,3.805-2.271,7.556-2.651,11.408-.454,4.584,3.8,8.549.84,14.01-2.211,4.082-1.427,9.68-2.622,14.442C501.012,74.188,498.406,85.3,494.683,96c-2.773,7.974-3.9,16.5-8.592,23.91-5.015,7.907.313,17.943,9.586,19.326a90.266,90.266,0,0,1,11.711,2.461c17.182,4.956,26.61,17.2,25.5,33.532-.254,3.733.922,5.744,3.8,7.758q22.308,15.6,44.4,31.51c24.032,17.344,38.793,41.887,52.1,67.535,1.885,3.632,4.651,6.953,5.828,10.781,6.17,20.055,8.238,40.783,8.642,61.634.406,20.982.481,41.985.006,62.963-.911,40.283-2.319,80.556-3.486,120.833-.033,1.13.471,2.268.511,3.409.108,3.1.5,6.257.061,9.287-1.118,7.733-2.746,15.389-3.951,23.11-2.105,13.485-7.776,24.823-19.839,31.941-10.888,6.425-21.714,13.18-33.268,18.167-7.6,3.279-9.69,8.275-9.846,15.285-.163,7.393-.036,14.792-.036,22.28H243.366a36.8,36.8,0,0,1,.026-4.663q2.717-20.039,5.555-40.061c.777-5.46-.47-7.292-5.565-9.33a24.392,24.392,0,0,1-7.362-4.623c-2.26-2.094-3.943-3.262-7.324-1.964-6.764,2.595-13.7-.558-14.855-7.5a199.4,199.4,0,0,1-2.3-29.21c-.051-3-.963-5.1-1.841-7.708-3.187-9.461-14.334-15.538-11.684-27.43.083-.372-.318-.933-.623-1.3Q186.212,514.56,175,501.209Z" transform="translate(-175 62.061)" fill="#dedede" fill-rule="evenodd"/>
</svg>
