<svg xmlns="http://www.w3.org/2000/svg" width="60" height="60" viewBox="0 0 60 60">
  <g id="tooth_icon" data-name="tooth icon" transform="translate(-390.944 -267.64)">
    <path id="Path_10" data-name="Path 10" d="M428.945,271.735a9.982,9.982,0,1,0,10,9.982A9.991,9.991,0,0,0,428.945,271.735Zm0,17.968a7.986,7.986,0,1,1,8-7.986A7.994,7.994,0,0,1,428.945,289.7Z" fill="#fff"/>
    <path id="Path_11" data-name="Path 11" d="M450.652,297.981l-9.486-9.468a14.059,14.059,0,1,0-4.187,4.631l9.259,9.243a1,1,0,0,0,1.414,0l3-2.995A1,1,0,0,0,450.652,297.981ZM428.945,293.7a11.979,11.979,0,1,1,12-11.979A12,12,0,0,1,428.945,293.7Zm18,6.573-8.412-8.4a14.211,14.211,0,0,0,1.505-1.663l8.493,8.477Z" fill="#fff"/>
    <path id="Path_12" data-name="Path 12" d="M432.473,303.555l-.377.6a1.048,1.048,0,0,0-.127.307l-4.354,19.119a2.647,2.647,0,0,1-5.192-.15l-3-17.961a4.542,4.542,0,0,0-8.958,0l-3,17.961a2.647,2.647,0,0,1-5.191.15l-4.355-19.126a1.007,1.007,0,0,0-.127-.307l-.376-.6a29.3,29.3,0,0,1-4.472-15.566,12.28,12.28,0,0,1,17.111-11.263,12.451,12.451,0,0,0,3.44.918l.232-1.983a10.372,10.372,0,0,1-2.883-.77,14.265,14.265,0,0,0-19.9,13.1,31.287,31.287,0,0,0,4.776,16.624l.286.457,4.319,18.966a4.647,4.647,0,0,0,9.113-.266l3-17.962a2.543,2.543,0,0,1,5.015,0l3,17.962a4.648,4.648,0,0,0,9.114.266l4.317-18.966.286-.457a31.373,31.373,0,0,0,3.681-8.414l-1.932-.522A29.326,29.326,0,0,1,432.473,303.555Z" fill="#fff"/>
    <path id="Path_13" data-name="Path 13" d="M395.944,287.706h2c0-5.061,4.03-5.973,4.2-6.01l-.2-.977-.2-.978C399.744,280.141,395.944,282.321,395.944,287.706Z" fill="#fff"/>
    <rect id="Rectangle_7" data-name="Rectangle 7" width="2" height="1.996" transform="translate(403.944 279.721)" fill="#fff"/>
    <path id="Path_14" data-name="Path 14" d="M429.236,276.017l-5.5,5.49,1.413,1.412,5.5-5.49Z" fill="#fff"/>
    <path id="Path_15" data-name="Path 15" d="M433.237,279.016l-7,6.987,1.414,1.412,7-6.987Z" fill="#fff"/>
  </g>
</svg>
