<svg xmlns="http://www.w3.org/2000/svg" width="50" height="60" viewBox="0 0 50 60">
  <g id="Group_57" data-name="Group 57" transform="translate(-395.945 -267.64)">
    <g id="Group_36" data-name="Group 36">
      <g id="Group_35" data-name="Group 35">
        <path id="Path_30" data-name="Path 30" d="M444.945,274.641h-3.6a32.388,32.388,0,0,1-19.786-6.79,1,1,0,0,0-1.229,0,32.383,32.383,0,0,1-19.785,6.79h-3.6a1,1,0,0,0-1,1v10.7a46.782,46.782,0,0,0,24.523,41.18,1,1,0,0,0,.954,0,46.783,46.783,0,0,0,24.523-41.175v-10.7A1,1,0,0,0,444.945,274.641Zm-1,11.7a44.786,44.786,0,0,1-23,39.16,44.782,44.782,0,0,1-23-39.155v-9.7h2.6a34.394,34.394,0,0,0,20.4-6.744,34.394,34.394,0,0,0,20.4,6.744h2.6v9.7Z" fill="#fff"/>
      </g>
    </g>
    <g id="Group_38" data-name="Group 38">
      <g id="Group_37" data-name="Group 37">
        <path id="Path_31" data-name="Path 31" d="M429.64,277.645a9.3,9.3,0,0,0-3.653.75,12.856,12.856,0,0,1-10.083,0,9.3,9.3,0,0,0-12.959,8.545,16.764,16.764,0,0,0,1.762,7.463l2.281,4.562,2.528,13.475a3.919,3.919,0,0,0,7.741-.237l1.308-10.463a2.4,2.4,0,0,1,4.761,0l1.307,10.465a3.918,3.918,0,0,0,7.74.239l2.53-13.483,2.28-4.561a16.8,16.8,0,0,0,1.763-7.46A9.3,9.3,0,0,0,429.64,277.645Zm5.754,15.861v0L433.05,298.2a.933.933,0,0,0-.087.261l-2.553,13.621a1.919,1.919,0,0,1-3.792-.118l-1.309-10.467a4.4,4.4,0,0,0-8.729,0l-1.308,10.464a1.919,1.919,0,0,1-3.791.118l-2.554-13.621a1.014,1.014,0,0,0-.087-.261l-2.344-4.688a14.758,14.758,0,0,1-1.551-6.565,7.3,7.3,0,0,1,10.172-6.711,14.846,14.846,0,0,0,11.656,0,7.3,7.3,0,0,1,10.172,6.711A14.746,14.746,0,0,1,435.394,293.506Z" fill="#fff"/>
      </g>
    </g>
    <g id="Group_40" data-name="Group 40">
      <g id="Group_39" data-name="Group 39">
        <path id="Path_32" data-name="Path 32" d="M410.39,281.809a7.719,7.719,0,0,0-3.445,6.437v1.395h2v-1.395a5.725,5.725,0,0,1,2.554-4.773Z" fill="#fff"/>
      </g>
    </g>
    <g id="Group_42" data-name="Group 42">
      <g id="Group_41" data-name="Group 41">
        <rect id="Rectangle_8" data-name="Rectangle 8" width="2" height="1.999" transform="translate(419.945 274.641)" fill="#fff"/>
      </g>
    </g>
    <g id="Group_44" data-name="Group 44">
      <g id="Group_43" data-name="Group 43">
        <rect id="Rectangle_9" data-name="Rectangle 9" width="2" height="2" transform="translate(439.945 278.641)" fill="#fff"/>
      </g>
    </g>
    <g id="Group_46" data-name="Group 46">
      <g id="Group_45" data-name="Group 45">
        <rect id="Rectangle_10" data-name="Rectangle 10" width="2" height="2" transform="translate(399.945 278.641)" fill="#fff"/>
      </g>
    </g>
    <g id="Group_48" data-name="Group 48">
      <g id="Group_47" data-name="Group 47">
        <rect id="Rectangle_11" data-name="Rectangle 11" width="2" height="2.001" transform="translate(435.945 304.64)" fill="#fff"/>
      </g>
    </g>
    <g id="Group_50" data-name="Group 50">
      <g id="Group_49" data-name="Group 49">
        <rect id="Rectangle_12" data-name="Rectangle 12" width="2" height="2" transform="translate(400.945 292.641)" fill="#fff"/>
      </g>
    </g>
    <g id="Group_52" data-name="Group 52">
      <g id="Group_51" data-name="Group 51">
        <rect id="Rectangle_13" data-name="Rectangle 13" width="2" height="2" transform="translate(419.945 319.641)" fill="#fff"/>
      </g>
    </g>
    <g id="Group_54" data-name="Group 54">
      <g id="Group_53" data-name="Group 53">
        <rect id="Rectangle_14" data-name="Rectangle 14" width="2" height="2" transform="translate(438.945 292.641)" fill="#fff"/>
      </g>
    </g>
    <g id="Group_56" data-name="Group 56">
      <g id="Group_55" data-name="Group 55">
        <rect id="Rectangle_15" data-name="Rectangle 15" width="2" height="2.001" transform="translate(403.945 304.64)" fill="#fff"/>
      </g>
    </g>
  </g>
</svg>
